<?xml version="1.0" standalone="no"?><!DOCTYPE svg PUBLIC "-//W3C//DTD SVG 1.1//EN" "http://www.w3.org/Graphics/SVG/1.1/DTD/svg11.dtd"><svg t="1517033642377" class="icon" style="" viewBox="0 0 1024 1024" version="1.1" xmlns="http://www.w3.org/2000/svg" p-id="1487" xmlns:xlink="http://www.w3.org/1999/xlink" width="200" height="200"><defs><style type="text/css"></style></defs><path d="M958.060195 237.681284c0 9.611915-7.792477 17.404392-17.404392 17.404392L79.092359 255.085676c-9.611915 0-17.404392-7.792477-17.404392-17.404392l0-90.030479c0-9.611915 7.792477-17.404392 17.404392-17.404392l861.562421 0c9.611915 0 17.404392 7.792477 17.404392 17.404392L958.059172 237.681284z" p-id="1488" fill="#333333"></path><path d="M958.060195 557.488007c0 9.611915-7.792477 17.404392-17.404392 17.404392L79.092359 574.892399c-9.611915 0-17.404392-7.792477-17.404392-17.404392l0-90.030479c0-9.611915 7.792477-17.404392 17.404392-17.404392l861.562421 0c9.611915 0 17.404392 7.792477 17.404392 17.404392L958.059172 557.488007z" p-id="1489" fill="#333333"></path><path d="M958.060195 877.29473c0 9.611915-7.792477 17.404392-17.404392 17.404392L79.092359 894.699122c-9.611915 0-17.404392-7.792477-17.404392-17.404392l0-90.030479c0-9.611915 7.792477-17.404392 17.404392-17.404392l861.562421 0c9.611915 0 17.404392 7.792477 17.404392 17.404392L958.059172 877.29473z" p-id="1490" fill="#333333"></path></svg>