<?xml version="1.0" encoding="UTF-8"?>
<svg width="182px" height="155px" viewBox="0 0 182 155" version="1.1" xmlns="http://www.w3.org/2000/svg" xmlns:xlink="http://www.w3.org/1999/xlink">
    <!-- Generator: Sketch 50.2 (55047) - http://www.bohemiancoding.com/sketch -->
    <title>burger</title>
    <desc>Created with Sketch.</desc>
    <defs></defs>
    <g id="Page-1" stroke="none" stroke-width="1" fill="none" fill-rule="evenodd">
        <g id="Artboard" transform="translate(-188.000000, -103.000000)" fill="#FFFFFF" fill-rule="nonzero">
            <g id="burger" transform="translate(188.000000, 103.000000)">
                <path d="M182,21.5146398 C182,23.439498 180.41781,25 178.466201,25 L3.53379907,25 C1.5821896,25 0,23.439498 0,21.5146398 L0,3.48536021 C0,1.56050204 1.5821896,0 3.53379907,0 L178.465993,0 C180.417603,0 181.999792,1.56050204 181.999792,3.48536021 L181.999792,21.5146398 L182,21.5146398 Z" id="Shape"></path>
                <path d="M182,86.5146398 C182,88.439498 180.41781,90 178.466201,90 L3.53379907,90 C1.5821896,90 0,88.439498 0,86.5146398 L0,68.4853602 C0,66.560502 1.5821896,65 3.53379907,65 L178.465993,65 C180.417603,65 181.999792,66.560502 181.999792,68.4853602 L181.999792,86.5146398 L182,86.5146398 Z" id="Shape"></path>
                <path d="M182,151.51464 C182,153.439498 180.41781,155 178.466201,155 L3.53379907,155 C1.5821896,155 0,153.439498 0,151.51464 L0,133.48536 C0,131.560502 1.5821896,130 3.53379907,130 L178.465993,130 C180.417603,130 181.999792,131.560502 181.999792,133.48536 L181.999792,151.51464 L182,151.51464 Z" id="Shape"></path>
            </g>
        </g>
    </g>
</svg>