<?xml version="1.0" standalone="no"?><!DOCTYPE svg PUBLIC "-//W3C//DTD SVG 1.1//EN" "http://www.w3.org/Graphics/SVG/1.1/DTD/svg11.dtd"><svg t="1516948230619" class="icon" style="" viewBox="0 0 1024 1024" version="1.1" xmlns="http://www.w3.org/2000/svg" p-id="5164" xmlns:xlink="http://www.w3.org/1999/xlink" width="200" height="200"><defs><style type="text/css"></style></defs><path d="M815.530015 959.469288 195.138352 959.469288c-32.114418 0-65.541739-14.130835-90.841961-39.431058-25.299199-25.300222-40.307008-57.850569-40.307008-89.964988L63.989383 185.219445c0-33.147958 15.633049-63.797002 43.11496-85.248569 24.100908-18.813484 55.6873-29.753651 88.035032-29.753651l336.698438 0c16.888645 0 30.579459 13.81054 30.579459 30.699186s-13.690814 30.699186-30.579459 30.699186L195.138352 131.615597c-33.180703 0-69.750597 21.060665-69.750597 53.603849l0 644.85482c0 33.530674 36.220946 67.997674 69.750597 67.997674l620.391662 0c32.54216 0 51.754734-34.81697 51.754734-67.997674L867.284749 497.453702c0-16.888645 13.81054-30.579459 30.699186-30.579459s30.699186 13.690814 30.699186 30.579459l0 332.620563c0 32.347732-10.015098 63.056128-28.827559 87.158059C878.403994 944.714236 848.678996 959.469288 815.530015 959.469288zM488.650199 550.213323c-9.912767 0-19.826558-3.78214-27.389814-11.346419-15.126512-15.126512-15.126512-39.650045 0-54.776557L870.335225 75.016531c15.126512-15.126512 39.652092-15.126512 54.778604 0s15.126512 39.650045 0 54.776557L516.03899 538.866904C508.475733 546.431184 498.561943 550.213323 488.650199 550.213323z" p-id="5165" fill="#333333"></path></svg>