<?xml version="1.0" standalone="no"?><!DOCTYPE svg PUBLIC "-//W3C//DTD SVG 1.1//EN" "http://www.w3.org/Graphics/SVG/1.1/DTD/svg11.dtd"><svg t="1516548429725" class="icon" style="" viewBox="0 0 1024 1024" version="1.1" xmlns="http://www.w3.org/2000/svg" p-id="3449" xmlns:xlink="http://www.w3.org/1999/xlink" width="200" height="200"><defs><style type="text/css"></style></defs><path d="M511.631 510.91m-445.605 0a445.605 445.605 0 1 0 891.21 0 445.605 445.605 0 1 0-891.21 0Z" fill="#EF6160" p-id="3450"></path><path d="M661.493 376.267a9.97 9.97 0 0 0-2.929-7.071c-3.906-3.905-10.236-3.905-14.143 0L510.188 503.429 381.042 369.33c-3.831-3.98-10.163-4.098-14.139-0.266a9.965 9.965 0 0 0-3.063 7.209 9.966 9.966 0 0 0 2.797 6.93l129.406 134.37-129.274 129.276c-1.952 1.953-2.929 4.512-2.929 7.071s0.977 5.118 2.929 7.071c1.953 1.952 4.512 2.929 7.071 2.929s5.119-0.977 7.071-2.929L509.92 531.982l124.225 128.99a9.972 9.972 0 0 0 7.204 3.063 9.97 9.97 0 0 0 6.936-2.797 9.973 9.973 0 0 0 3.063-7.21 9.97 9.97 0 0 0-2.797-6.93l-124.487-129.26 134.5-134.5a9.968 9.968 0 0 0 2.929-7.071z" fill="#FFFFFF" p-id="3451"></path></svg>