<?xml version="1.0" standalone="no"?><!DOCTYPE svg PUBLIC "-//W3C//DTD SVG 1.1//EN" "http://www.w3.org/Graphics/SVG/1.1/DTD/svg11.dtd"><svg t="1517675522698" class="icon" style="" viewBox="0 0 1024 1024" version="1.1" xmlns="http://www.w3.org/2000/svg" p-id="3953" xmlns:xlink="http://www.w3.org/1999/xlink" width="200" height="200"><defs><style type="text/css"></style></defs><path d="M576 568c110.4-28.4 192-128.6 192-248 0-141.4-114.6-256-256-256S256 178.6 256 320c0 119.2 81.6 219.4 192 248l0 136-128 0 0 128 128 0 0 128 128 0 0-128 128 0 0-128-128 0L576 568zM512 480c-88.2 0-160-71.8-160-160s71.8-160 160-160 160 71.8 160 160S600.2 480 512 480z" p-id="3954" fill="#333333"></path></svg>