<?xml version="1.0" standalone="no"?><!DOCTYPE svg PUBLIC "-//W3C//DTD SVG 1.1//EN" "http://www.w3.org/Graphics/SVG/1.1/DTD/svg11.dtd"><svg t="1516948054039" class="icon" style="" viewBox="0 0 1024 1024" version="1.1" xmlns="http://www.w3.org/2000/svg" p-id="3469" xmlns:xlink="http://www.w3.org/1999/xlink" width="200" height="200"><defs><style type="text/css"></style></defs><path d="M268.501333 499.509333a42.666667 42.666667 0 0 1 60.341334-60.341333L469.333333 579.669333V85.333333a42.666667 42.666667 0 0 1 85.333334 0v494.325334l140.501333-140.490667a42.666667 42.666667 0 1 1 60.330667 60.341333l-213.333334 213.333334A42.592 42.592 0 0 1 512 725.344a42.592 42.592 0 0 1-30.176-12.501333l-213.322667-213.333334zM938.666667 640.010667A42.666667 42.666667 0 0 0 896 682.666667v170.677333C896 876.864 877.365333 896 854.453333 896H170.666667c-23.52 0-42.666667-19.136-42.666667-42.656V682.666667a42.677333 42.677333 0 0 0-85.322667 0v170.677333c0 17.258667 3.392 34.005333 10.069334 49.834667a127.434667 127.434667 0 0 0 27.413333 40.672 127.434667 127.434667 0 0 0 40.672 27.392A126.613333 126.613333 0 0 0 170.666667 981.333333h683.786666c33.802667 0 66.186667-13.578667 89.898667-37.685333a127.317333 127.317333 0 0 0 27.04-40.661333 128.213333 128.213333 0 0 0 9.930667-49.642667V682.666667a42.645333 42.645333 0 0 0-42.634667-42.656H938.666667z" p-id="3470" fill="#333333"></path></svg>