<?xml version="1.0" standalone="no"?><!DOCTYPE svg PUBLIC "-//W3C//DTD SVG 1.1//EN" "http://www.w3.org/Graphics/SVG/1.1/DTD/svg11.dtd"><svg t="1517675558239" class="icon" style="" viewBox="0 0 1024 1024" version="1.1" xmlns="http://www.w3.org/2000/svg" p-id="4739" xmlns:xlink="http://www.w3.org/1999/xlink" width="200" height="200"><defs><style type="text/css"></style></defs><path d="M960 384 960 64 640 64l126 126-137.4 137.4C569.6 282.6 495.8 256 416 256c-194.4 0-352 157.6-352 352s157.6 352 352 352 352-157.6 352-352c0-79.8-26.6-153.6-71.4-212.6L834 258 960 384zM597 789C548.6 837.4 484.4 864 416 864s-132.6-26.6-181-75C186.6 740.6 160 676.4 160 608s26.6-132.6 75-181c48.4-48.4 112.6-75 181-75s132.6 26.6 181 75S672 539.6 672 608 645.4 740.6 597 789z" p-id="4740" fill="#333333"></path></svg>