<?xml version="1.0" standalone="no"?><!DOCTYPE svg PUBLIC "-//W3C//DTD SVG 1.1//EN" "http://www.w3.org/Graphics/SVG/1.1/DTD/svg11.dtd"><svg t="1516349606763" class="icon" style="" viewBox="0 0 1024 1024" version="1.1" xmlns="http://www.w3.org/2000/svg" p-id="3548" xmlns:xlink="http://www.w3.org/1999/xlink" width="200" height="200"><defs><style type="text/css"></style></defs><path d="M512 981.333333C251.733333 981.333333 42.666667 772.266667 42.666667 512 42.666667 251.733333 251.733333 42.666667 512 42.666667s469.333333 209.066667 469.333333 469.333333C981.333333 772.266667 772.266667 981.333333 512 981.333333zM721.066667 714.666667c-10.666667-72.533333-57.6-132.266667-123.733333-162.133333 49.066667-29.866667 83.2-83.2 83.2-147.2 0-93.866667-76.8-170.666667-170.666667-170.666667s-170.666667 76.8-170.666667 170.666667c0 61.866667 34.133333 117.333333 83.2 147.2-66.133333 29.866667-113.066667 89.6-123.733333 162.133333C300.8 718.933333 298.666667 721.066667 298.666667 725.333333c0 12.8 8.533333 21.333333 21.333333 21.333333 10.666667 0 21.333333-10.666667 21.333333-21.333333l2.133333 0c10.666667-83.2 81.066667-149.333333 168.533333-149.333333 87.466667 0 157.866667 66.133333 168.533333 149.333333L682.666667 725.333333c0 12.8 8.533333 21.333333 21.333333 21.333333 12.8 0 21.333333-10.666667 21.333333-21.333333C725.333333 721.066667 723.2 716.8 721.066667 714.666667zM384 405.333333c0-70.4 57.6-128 128-128s128 57.6 128 128c0 70.4-57.6 128-128 128S384 475.733333 384 405.333333z" p-id="3549"></path></svg>