<?xml version="1.0" standalone="no"?><!DOCTYPE svg PUBLIC "-//W3C//DTD SVG 1.1//EN" "http://www.w3.org/Graphics/SVG/1.1/DTD/svg11.dtd"><svg t="1516948269496" class="icon" style="" viewBox="0 0 1024 1024" version="1.1" xmlns="http://www.w3.org/2000/svg" p-id="6105" xmlns:xlink="http://www.w3.org/1999/xlink" width="200" height="200"><defs><style type="text/css"></style></defs><path d="M512 93.090909c69.259636 0 137.867636 17.245091 198.423273 49.873455 11.310545 6.085818 25.425455 1.861818 31.522909-9.448727 6.085818-11.322182 1.861818-25.437091-9.460364-31.522909C665.181091 65.710545 588.939636 46.545455 512 46.545455 255.348364 46.545455 46.545455 255.348364 46.545455 512c0 73.192727 16.500364 143.255273 49.058909 208.221091 4.084364 8.145455 12.299636 12.846545 20.829091 12.846545 3.502545 0 7.063273-0.779636 10.414545-2.466909 11.485091-5.76 16.139636-19.735273 10.379636-31.232C107.938909 640.930909 93.090909 577.885091 93.090909 512 93.090909 281.006545 281.006545 93.090909 512 93.090909z" p-id="6106" fill="#333333"></path><path d="M882.571636 230.295273c-7.784727-10.216727-22.4-12.206545-32.616727-4.421818-10.228364 7.784727-12.218182 22.388364-4.433455 32.616727C901.387636 331.857455 930.909091 419.525818 930.909091 512c0 230.993455-187.915636 418.909091-418.909091 418.909091-92.474182 0-180.142545-29.533091-253.533091-85.399273-10.216727-7.819636-24.820364-5.806545-32.616727 4.410182-7.784727 10.228364-5.806545 24.832 4.421818 32.616727C311.831273 944.64 409.250909 977.454545 512 977.454545c256.651636 0 465.454545-208.802909 465.454545-465.454545C977.454545 409.250909 944.64 311.842909 882.571636 230.295273z" p-id="6107" fill="#333333"></path><path d="M635.182545 297.728c-9.088 9.088-9.088 23.819636 0 32.907636L711.819636 407.272727 325.818182 407.272727c-12.846545 0-23.272727 10.426182-23.272727 23.272727s10.426182 23.272727 23.272727 23.272727l442.181818 0c9.413818 0 17.896727-5.666909 21.504-14.370909 3.607273-8.692364 1.617455-18.699636-5.050182-25.355636l-116.363636-116.363636C659.002182 288.64 644.270545 288.64 635.182545 297.728z" p-id="6108" fill="#333333"></path><path d="M721.454545 593.454545c0-12.846545-10.426182-23.272727-23.272727-23.272727L256 570.181818c-9.413818 0-17.896727 5.666909-21.504 14.359273-3.607273 8.704-1.617455 18.699636 5.050182 25.367273l116.363636 116.363636C360.448 730.821818 366.405818 733.090909 372.363636 733.090909s11.915636-2.269091 16.453818-6.818909c9.088-9.088 9.088-23.819636 0-32.907636L312.192 616.727273 698.181818 616.727273C711.028364 616.727273 721.454545 606.301091 721.454545 593.454545z" p-id="6109" fill="#333333"></path></svg>