<?xml version="1.0" standalone="no"?><!DOCTYPE svg PUBLIC "-//W3C//DTD SVG 1.1//EN" "http://www.w3.org/Graphics/SVG/1.1/DTD/svg11.dtd"><svg t="1516453258819" class="icon" style="" viewBox="0 0 1024 1024" version="1.1" xmlns="http://www.w3.org/2000/svg" p-id="1876" xmlns:xlink="http://www.w3.org/1999/xlink" width="200" height="200"><defs><style type="text/css"></style></defs><path d="M501.209236 375.316991c21.556968 0 35.967166-14.434757 35.967166-35.939537 0-21.745257-14.382569-35.811624-35.967166-35.811624-21.589714 0-43.25106 14.066367-43.25106 35.811624C457.982736 360.882234 479.648175 375.316991 501.209236 375.316991z" p-id="1877"></path><path d="M300.042587 303.56583c-21.557992 0-43.354414 14.066367-43.354414 35.811624 0 21.50478 21.796422 35.939537 43.354414 35.939537 21.481244 0 35.863812-14.434757 35.863812-35.939537C335.88184 317.632197 321.523831 303.56583 300.042587 303.56583z" p-id="1878"></path><path d="M809.53958 760.487398c-4.372587 3.302209-6.231935 8.986675-4.660136 14.227026l12.391215 41.203424-50.849108-27.820626c-1.939165-1.071402-4.113691-1.622964-6.288217-1.622964-1.071402 0-2.146896 0.132006-3.193739 0.419556-27.273157 6.890944-55.486732 13.990642-82.963527 13.990642-127.633912 0-231.451396-87.708598-231.451396-195.507766 0-107.798145 103.817484-195.479113 231.451396-195.479113 125.19128 0 230.975559 89.514733 230.975559 195.479113C904.951627 659.133012 871.079168 714.222701 809.53958 760.487398zM419.161568 656.042627c-8.513908 0.731664-17.160845 1.099031-25.726941 1.099031-28.919656 0-53.387931-5.003967-81.680301-10.843976l-16.452717-3.325745c-2.830465-0.603751-5.816472-0.211824-8.40646 1.122567l-72.279187 36.180014 18.783809-56.43022c1.834788-5.523807-0.184195-11.552104-4.925173-14.877849-72.618924-50.613748-109.421108-112.280226-109.421108-183.243441 0-127.57763 123.06792-231.395114 274.353508-231.395114 133.73691 0 252.144694 81.364099 276.584316 189.582823-140.228765 1.834788-253.68784 100.411921-253.68784 221.494627 0 17.603937 2.673899 34.656311 7.179516 51.109028C422.118923 656.174634 420.680155 655.910621 419.161568 656.042627zM931.145196 605.405343c0-113.695458-105.468077-210.56981-234.92859-220.654492 0.180102-1.415232 0.25992-2.882654-0.056282-4.349051C670.202115 259.371282 540.059056 168.129208 393.405975 168.129208c-165.719322 0-300.552194 115.553783-300.552194 257.593799 0 76.204589 38.902008 144.865365 112.619964 199.012589l-25.699312 77.255525c-1.650593 5.028527-0.155543 10.55745 3.849678 14.042831 2.438539 2.094708 5.500271 3.193739 8.594749 3.193739 1.990331 0 4.009314-0.471744 5.867638-1.38658l96.482425-48.28368 11.891841 2.409886c29.707602 6.104021 55.354725 11.396561 86.945211 11.396561 9.301853 0 18.73162-0.419556 27.981285-1.203408 3.745301-0.315178 6.915503-2.202155 9.061376-4.924149 34.788318 87.048565 130.672108 149.893892 243.49878 149.893892 28.897144 0 58.156538-6.966669 84.407412-13.542434l74.369801 40.655955c1.965771 1.075495 4.140297 1.627057 6.287193 1.627057 2.933819 0 5.867638-0.994654 8.226359-2.90926 4.137227-3.354398 5.840008-8.878205 4.296863-13.935384l-18.99461-63.160505C896.224872 725.543537 931.145196 665.340387 931.145196 605.405343z" p-id="1879"></path><path d="M594.679048 511.960091c-14.382569 0-28.765137 14.485923-28.765137 28.844955 0 14.458293 14.382569 28.736485 28.765137 28.736485 21.609157 0 35.887348-14.278191 35.887348-28.736485C630.565373 526.422478 616.287181 511.960091 594.679048 511.960091z" p-id="1880"></path><path d="M752.694921 511.960091c-14.169721 0-28.55229 14.485923-28.55229 28.844955 0 14.458293 14.382569 28.736485 28.55229 28.736485 21.533432 0 36.071543-14.278191 36.071543-28.736485C788.766464 526.422478 774.257006 511.960091 752.694921 511.960091z" p-id="1881"></path></svg>